<svg width="256" height="256" viewBox="0 0 256 256" fill="none" xmlns="http://www.w3.org/2000/svg">
<rect width="256" height="256" fill="#121111"/>
<g filter="url(#filter0_i_1_2)">
<rect x="40" y="20" width="175" height="215" rx="25" fill="#19191C"/>
</g>
<g filter="url(#filter1_i_1_2)">
<rect x="40" y="20" width="175" height="215" rx="25" fill="#19191C"/>
</g>
<rect x="63" y="45" width="130" height="51" rx="10" fill="#292929"/>
<rect x="63" y="106" width="45" height="22" rx="5" fill="#FFACAC"/>
<rect x="63" y="133" width="22" height="22" rx="5" fill="#EEEEEE"/>
<rect x="63" y="160" width="22" height="22" rx="5" fill="#BBBEFF"/>
<rect x="89" y="160" width="22" height="22" rx="5" fill="#BBBEFF"/>
<rect x="89" y="133" width="22" height="22" rx="5" fill="#EEEEEE"/>
<rect x="115" y="133" width="22" height="22" rx="5" fill="#EEEEEE"/>
<rect x="141" y="133" width="22" height="22" rx="5" fill="#EEEEEE"/>
<rect x="167" y="133" width="22" height="22" rx="5" fill="#EEEEEE"/>
<path d="M89.68 87V79.32H73.84V72.552L87.712 51.96H92.416L78.16 73.464V75.384H89.68V66.84H94V87H89.68ZM103.197 87V82.584L113.901 71.208C115.725 69.256 117.053 67.528 117.885 66.024C118.717 64.488 119.133 63.016 119.133 61.608C119.133 59.656 118.589 58.12 117.501 57C116.445 55.88 114.989 55.32 113.133 55.32C111.085 55.32 109.469 55.896 108.285 57.048C107.133 58.2 106.557 59.784 106.557 61.8H102.237C102.301 59.688 102.781 57.864 103.677 56.328C104.605 54.76 105.869 53.56 107.469 52.728C109.101 51.896 110.989 51.48 113.133 51.48C115.245 51.48 117.069 51.896 118.605 52.728C120.173 53.528 121.373 54.68 122.205 56.184C123.037 57.688 123.453 59.48 123.453 61.56C123.453 63.544 122.925 65.512 121.869 67.464C120.813 69.416 119.085 71.64 116.685 74.136L108.045 83.064H124.029V87H103.197Z" fill="white"/>
<path d="M164.08 249V240.24H165.52L168.196 247.74C168.18 247.54 168.16 247.296 168.136 247.008C168.12 246.712 168.104 246.404 168.088 246.084C168.08 245.756 168.076 245.448 168.076 245.16V240.24H169.12V249H167.68L165.016 241.5C165.032 241.692 165.048 241.936 165.064 242.232C165.08 242.52 165.092 242.828 165.1 243.156C165.116 243.476 165.124 243.784 165.124 244.08V249H164.08ZM173.795 249.12C173.267 249.12 172.811 249.02 172.427 248.82C172.051 248.62 171.759 248.332 171.551 247.956C171.351 247.572 171.251 247.12 171.251 246.6V242.64C171.251 242.112 171.351 241.66 171.551 241.284C171.759 240.908 172.051 240.62 172.427 240.42C172.811 240.22 173.267 240.12 173.795 240.12C174.323 240.12 174.775 240.22 175.151 240.42C175.535 240.62 175.827 240.908 176.027 241.284C176.235 241.66 176.339 242.108 176.339 242.628V246.6C176.339 247.12 176.235 247.572 176.027 247.956C175.827 248.332 175.535 248.62 175.151 248.82C174.775 249.02 174.323 249.12 173.795 249.12ZM173.795 248.148C174.267 248.148 174.627 248.016 174.875 247.752C175.131 247.48 175.259 247.096 175.259 246.6V242.64C175.259 242.144 175.131 241.764 174.875 241.5C174.627 241.228 174.267 241.092 173.795 241.092C173.331 241.092 172.971 241.228 172.715 241.5C172.459 241.764 172.331 242.144 172.331 242.64V246.6C172.331 247.096 172.459 247.48 172.715 247.752C172.971 248.016 173.331 248.148 173.795 248.148ZM181.039 249.12C180.463 249.12 179.967 249.024 179.551 248.832C179.143 248.64 178.827 248.364 178.603 248.004C178.379 247.644 178.263 247.216 178.255 246.72H179.335C179.335 247.16 179.483 247.508 179.779 247.764C180.083 248.02 180.503 248.148 181.039 248.148C181.543 248.148 181.935 248.024 182.215 247.776C182.503 247.528 182.647 247.184 182.647 246.744C182.647 246.392 182.551 246.084 182.359 245.82C182.175 245.556 181.907 245.372 181.555 245.268L180.367 244.896C179.767 244.712 179.303 244.404 178.975 243.972C178.655 243.54 178.495 243.032 178.495 242.448C178.495 241.976 178.599 241.568 178.807 241.224C179.023 240.872 179.323 240.6 179.707 240.408C180.091 240.208 180.543 240.108 181.063 240.108C181.831 240.108 182.447 240.324 182.911 240.756C183.375 241.18 183.611 241.748 183.619 242.46H182.539C182.539 242.028 182.407 241.692 182.143 241.452C181.887 241.204 181.523 241.08 181.051 241.08C180.587 241.08 180.223 241.192 179.959 241.416C179.703 241.64 179.575 241.952 179.575 242.352C179.575 242.712 179.671 243.024 179.863 243.288C180.055 243.552 180.331 243.74 180.691 243.852L181.891 244.236C182.475 244.42 182.927 244.732 183.247 245.172C183.567 245.612 183.727 246.128 183.727 246.72C183.727 247.2 183.615 247.62 183.391 247.98C183.167 248.34 182.851 248.62 182.443 248.82C182.043 249.02 181.575 249.12 181.039 249.12ZM188.234 249.12C187.706 249.12 187.246 249.02 186.854 248.82C186.47 248.62 186.17 248.332 185.954 247.956C185.746 247.572 185.642 247.12 185.642 246.6V242.64C185.642 242.112 185.746 241.66 185.954 241.284C186.17 240.908 186.47 240.62 186.854 240.42C187.246 240.22 187.706 240.12 188.234 240.12C188.762 240.12 189.218 240.224 189.602 240.432C189.986 240.632 190.282 240.92 190.49 241.296C190.698 241.672 190.802 242.12 190.802 242.64H189.722C189.722 242.144 189.59 241.764 189.326 241.5C189.07 241.228 188.706 241.092 188.234 241.092C187.762 241.092 187.39 241.224 187.118 241.488C186.854 241.752 186.722 242.132 186.722 242.628V246.6C186.722 247.096 186.854 247.48 187.118 247.752C187.39 248.016 187.762 248.148 188.234 248.148C188.706 248.148 189.07 248.016 189.326 247.752C189.59 247.48 189.722 247.096 189.722 246.6H190.802C190.802 247.112 190.698 247.56 190.49 247.944C190.282 248.32 189.986 248.612 189.602 248.82C189.218 249.02 188.762 249.12 188.234 249.12ZM192.885 249V240.24H195.597C196.117 240.24 196.573 240.348 196.965 240.564C197.357 240.772 197.661 241.064 197.877 241.44C198.093 241.816 198.201 242.256 198.201 242.76C198.201 243.352 198.045 243.86 197.733 244.284C197.429 244.708 197.013 245 196.485 245.16L198.321 249H197.049L195.369 245.28H193.965V249H192.885ZM193.965 244.308H195.597C196.045 244.308 196.405 244.168 196.677 243.888C196.949 243.6 197.085 243.224 197.085 242.76C197.085 242.288 196.949 241.912 196.677 241.632C196.405 241.352 196.045 241.212 195.597 241.212H193.965V244.308ZM200.237 249V248.016H202.025V241.224H200.237V240.24H204.917V241.224H203.129V248.016H204.917V249H200.237ZM207.276 249V240.24H210.096C210.64 240.24 211.112 240.348 211.512 240.564C211.912 240.772 212.22 241.068 212.436 241.452C212.66 241.836 212.772 242.292 212.772 242.82C212.772 243.34 212.66 243.796 212.436 244.188C212.22 244.572 211.912 244.872 211.512 245.088C211.112 245.296 210.64 245.4 210.096 245.4H208.356V249H207.276ZM208.356 244.428H210.096C210.568 244.428 210.944 244.284 211.224 243.996C211.512 243.7 211.656 243.308 211.656 242.82C211.656 242.324 211.512 241.932 211.224 241.644C210.944 241.356 210.568 241.212 210.096 241.212H208.356V244.428ZM216.427 249V241.212H214.027V240.228H219.907V241.212H217.507V249H216.427ZM224.211 249.12C223.683 249.12 223.223 249.02 222.831 248.82C222.447 248.62 222.147 248.332 221.931 247.956C221.723 247.572 221.619 247.12 221.619 246.6V242.64C221.619 242.112 221.723 241.66 221.931 241.284C222.147 240.908 222.447 240.62 222.831 240.42C223.223 240.22 223.683 240.12 224.211 240.12C224.739 240.12 225.195 240.224 225.579 240.432C225.963 240.632 226.259 240.92 226.467 241.296C226.675 241.672 226.779 242.12 226.779 242.64H225.699C225.699 242.144 225.567 241.764 225.303 241.5C225.047 241.228 224.683 241.092 224.211 241.092C223.739 241.092 223.367 241.224 223.095 241.488C222.831 241.752 222.699 242.132 222.699 242.628V246.6C222.699 247.096 222.831 247.48 223.095 247.752C223.367 248.016 223.739 248.148 224.211 248.148C224.683 248.148 225.047 248.016 225.303 247.752C225.567 247.48 225.699 247.096 225.699 246.6H226.779C226.779 247.112 226.675 247.56 226.467 247.944C226.259 248.32 225.963 248.612 225.579 248.82C225.195 249.02 224.739 249.12 224.211 249.12ZM228.358 249L230.638 240.24H232.09L234.358 249H233.266L232.69 246.672H230.038L229.462 249H228.358ZM230.254 245.76H232.462L231.79 243.06C231.662 242.548 231.562 242.12 231.49 241.776C231.418 241.432 231.374 241.208 231.358 241.104C231.342 241.208 231.298 241.432 231.226 241.776C231.154 242.12 231.054 242.544 230.926 243.048L230.254 245.76ZM236.333 249V240.24H237.413V248.016H241.373V249H236.333ZM245.796 249.12C245.268 249.12 244.808 249.02 244.416 248.82C244.032 248.62 243.732 248.332 243.516 247.956C243.308 247.572 243.204 247.12 243.204 246.6V242.64C243.204 242.112 243.308 241.66 243.516 241.284C243.732 240.908 244.032 240.62 244.416 240.42C244.808 240.22 245.268 240.12 245.796 240.12C246.324 240.12 246.78 240.224 247.164 240.432C247.548 240.632 247.844 240.92 248.052 241.296C248.26 241.672 248.364 242.12 248.364 242.64H247.284C247.284 242.144 247.152 241.764 246.888 241.5C246.632 241.228 246.268 241.092 245.796 241.092C245.324 241.092 244.952 241.224 244.68 241.488C244.416 241.752 244.284 242.132 244.284 242.628V246.6C244.284 247.096 244.416 247.48 244.68 247.752C244.952 248.016 245.324 248.148 245.796 248.148C246.268 248.148 246.632 248.016 246.888 247.752C247.152 247.48 247.284 247.096 247.284 246.6H248.364C248.364 247.112 248.26 247.56 248.052 247.944C247.844 248.32 247.548 248.612 247.164 248.82C246.78 249.02 246.324 249.12 245.796 249.12Z" fill="#232323"/>
<defs>
<filter id="filter0_i_1_2" x="40" y="20" width="175" height="215" filterUnits="userSpaceOnUse" color-interpolation-filters="sRGB">
<feFlood flood-opacity="0" result="BackgroundImageFix"/>
<feBlend mode="normal" in="SourceGraphic" in2="BackgroundImageFix" result="shape"/>
<feColorMatrix in="SourceAlpha" type="matrix" values="0 0 0 0 0 0 0 0 0 0 0 0 0 0 0 0 0 0 127 0" result="hardAlpha"/>
<feOffset/>
<feGaussianBlur stdDeviation="5"/>
<feComposite in2="hardAlpha" operator="arithmetic" k2="-1" k3="1"/>
<feColorMatrix type="matrix" values="0 0 0 0 0 0 0 0 0 0 0 0 0 0 0 0 0 0 0.25 0"/>
<feBlend mode="normal" in2="shape" result="effect1_innerShadow_1_2"/>
</filter>
<filter id="filter1_i_1_2" x="40" y="20" width="175" height="215" filterUnits="userSpaceOnUse" color-interpolation-filters="sRGB">
<feFlood flood-opacity="0" result="BackgroundImageFix"/>
<feBlend mode="normal" in="SourceGraphic" in2="BackgroundImageFix" result="shape"/>
<feColorMatrix in="SourceAlpha" type="matrix" values="0 0 0 0 0 0 0 0 0 0 0 0 0 0 0 0 0 0 127 0" result="hardAlpha"/>
<feOffset/>
<feGaussianBlur stdDeviation="5"/>
<feComposite in2="hardAlpha" operator="arithmetic" k2="-1" k3="1"/>
<feColorMatrix type="matrix" values="0 0 0 0 0 0 0 0 0 0 0 0 0 0 0 0 0 0 0.25 0"/>
<feBlend mode="normal" in2="shape" result="effect1_innerShadow_1_2"/>
</filter>
</defs>
</svg>
